HIERARCHY
ROOT root
{
	OFFSET 0.000000 0.000000 0.000000
	CHANNELS 6 Xposition Yposition Zposition Zrotation Yrotation Xrotation
	JOINT lhip
	{
		OFFSET 0.058581 -0.082280 -0.017664
		CHANNELS 3 Zrotation Yrotation Xrotation
		JOINT lknee
		{
			OFFSET 0.043451 -0.386469 0.008037
			CHANNELS 3 Zrotation Yrotation Xrotation
			JOINT lankle
			{
				OFFSET -0.014790 -0.426874 -0.037428
				CHANNELS 3 Zrotation Yrotation Xrotation
				JOINT ltoe
				{
					OFFSET 0.041054 -0.060286 0.122042
					CHANNELS 3 Zrotation Yrotation Xrotation
					End Site
					{
						OFFSET 0.000000 0.000000 0.000000
					}
				}
			}
		}
	}
	JOINT rhip
	{
		OFFSET -0.060310 -0.090513 -0.013543
		CHANNELS 3 Zrotation Yrotation Xrotation
		JOINT rknee
		{
			OFFSET -0.043257 -0.383688 -0.004843
			CHANNELS 3 Zrotation Yrotation Xrotation
			JOINT rankle
			{
				OFFSET 0.019056 -0.420046 -0.034562
				CHANNELS 3 Zrotation Yrotation Xrotation
				JOINT rtoe
				{
					OFFSET -0.034840 -0.062106 0.130323
					CHANNELS 3 Zrotation Yrotation Xrotation
					End Site
					{
						OFFSET 0.000000 0.000000 0.000000
					}
				}
			}
		}
	}
	JOINT lowerback
	{
		OFFSET 0.004439 0.124404 -0.038385
		CHANNELS 3 Zrotation Yrotation Xrotation
		JOINT upperback
		{
			OFFSET 0.004488 0.137956 0.026820
			CHANNELS 3 Zrotation Yrotation Xrotation
			JOINT chest
			{
				OFFSET -0.002265 0.056032 0.002855
				CHANNELS 3 Zrotation Yrotation Xrotation
				JOINT lowerneck
				{
					OFFSET -0.013390 0.211636 -0.033468
					CHANNELS 3 Zrotation Yrotation Xrotation
					JOINT upperneck
					{
						OFFSET 0.010113 0.088937 0.050410
						CHANNELS 3 Zrotation Yrotation Xrotation
						End Site
						{
							OFFSET 0.000000 0.000000 0.000000
						}
					}
				}
				JOINT lclavicle
				{
					OFFSET 0.071702 0.114000 -0.018898
					CHANNELS 3 Zrotation Yrotation Xrotation
					JOINT lshoulder
					{
						OFFSET 0.122921 0.045205 -0.019046
						CHANNELS 3 Zrotation Yrotation Xrotation
						JOINT lelbow
						{
							OFFSET 0.255332 -0.015649 -0.022946
							CHANNELS 3 Zrotation Yrotation Xrotation
							JOINT lwrist
							{
								OFFSET 0.265709 0.012698 -0.007375
								CHANNELS 3 Zrotation Yrotation Xrotation
								End Site
								{
									OFFSET 0.000000 0.000000 0.000000
								}
							}
						}
					}
				}
				JOINT rclavicle
				{
					OFFSET -0.082954 0.112472 -0.023707
					CHANNELS 3 Zrotation Yrotation Xrotation
					JOINT rshoulder
					{
						OFFSET -0.113228 0.046853 -0.008472
						CHANNELS 3 Zrotation Yrotation Xrotation
						JOINT relbow
						{
							OFFSET -0.260127 -0.014369 -0.031269
							CHANNELS 3 Zrotation Yrotation Xrotation
							JOINT rwrist
							{
								OFFSET -0.269108 0.006794 -0.006027
								CHANNELS 3 Zrotation Yrotation Xrotation
								End Site
								{
									OFFSET 0.000000 0.000000 0.000000
								}
							}
						}
					}
				}
			}
		}
	}
}
MOTION
Frames: 11
Frame Time: 0.033333
2.310559 0.680848 0.985415 -73.837369 -0.183303 85.617599 -3.023645 -2.922052 5.001407 1.423042 -14.827449 0.543156 0.503430 5.696398 -11.613467 0.000000 -0.000000 0.000000 2.092142 -3.467443 6.104760 -5.982694 -3.248513 3.905014 1.787021 -10.174045 -15.070161 0.000000 -0.000000 0.000000 -0.248947 4.118264 9.382960 -3.630612 0.034681 0.482271 0.420987 1.874606 -1.687570 -0.751206 28.980784 -8.072778 -2.362535 25.120293 -7.731675 -24.413475 -9.149143 0.529623 -53.249075 -7.680286 12.365136 -0.693057 -19.549942 18.807128 -1.015936 -4.749427 -1.659720 20.610747 8.714129 5.827719 63.780002 4.445780 20.931090 -1.686705 26.292591 19.738260 1.666987 0.883094 0.787838 
2.312295 0.681192 0.985377 -74.461022 -0.299631 85.472998 -3.234519 -3.014748 5.089936 1.446251 -13.981718 0.595509 0.252728 5.775023 -11.643081 0.000000 -0.000000 0.000000 1.974263 -2.340770 5.926983 -5.982134 -3.769096 4.487085 1.975396 -10.134692 -15.146000 0.000000 -0.000000 0.000000 0.033849 4.258819 10.506450 -3.995005 0.276535 -0.445783 0.195038 1.821130 -1.658738 -0.546171 29.364383 -8.243100 -2.225063 25.184993 -7.382872 -25.404601 -9.320562 1.355000 -52.138728 -6.923947 11.666628 0.093585 -19.826580 18.119770 -1.325990 -7.624054 2.060887 20.776433 8.938868 5.978576 63.899528 4.293139 20.705076 -2.083589 26.278650 19.474631 1.397271 1.755272 0.897456 
2.312422 0.681400 0.985409 -74.490911 -0.327628 85.588505 -3.228687 -3.117205 4.983136 1.312226 -14.195752 0.593213 0.512130 6.138317 -11.407671 0.000000 -0.000000 0.000000 1.861675 -2.489343 5.654246 -5.908972 -3.486674 4.775785 1.777412 -10.350556 -15.162676 0.000000 -0.000000 0.000000 0.008965 4.254227 10.187372 -4.022408 0.310765 -0.058653 0.257130 1.776221 -1.694974 -0.824163 29.044824 -8.040139 -2.309357 25.368779 -7.833936 -25.320278 -9.021207 1.031255 -52.218158 -6.917128 11.487392 -1.120983 -20.908626 15.821785 -2.760786 -3.566523 -0.969317 20.864495 8.889695 5.996987 63.728775 4.267082 20.879974 -2.260508 26.873283 18.920819 3.189433 0.229427 1.382415 
2.312183 0.681625 0.985568 -74.652736 -0.294963 85.526019 -3.142887 -2.980040 5.157206 1.284943 -14.099969 0.422788 0.315051 6.076026 -11.334632 0.000000 -0.000000 0.000000 1.948023 -2.385027 5.781883 -5.983944 -3.400891 4.693284 1.851062 -10.330831 -15.128366 0.000000 -0.000000 0.000000 -0.016876 4.241922 10.259640 -3.959425 0.354864 0.143985 0.272325 1.754839 -1.774312 -0.767003 29.179903 -8.054030 -2.522332 25.277585 -7.842526 -25.276181 -8.791966 1.077310 -52.295914 -6.640422 11.587266 -1.031556 -20.509794 16.897464 -2.875700 -4.484577 -0.126825 20.836383 8.820497 5.972553 63.783288 4.462214 20.842093 -2.273698 26.661475 18.936462 3.126542 0.407521 1.109332 
2.312475 0.681342 0.985246 -74.671744 -0.496461 85.636915 -3.483556 -2.981266 5.069004 1.467971 -14.235573 0.319617 0.397967 6.345730 -11.198414 0.000000 -0.000000 0.000000 1.717926 -2.086310 5.595046 -5.999727 -3.423170 4.861279 1.781966 -10.595047 -15.156457 0.000000 -0.000000 0.000000 -0.133844 4.175026 10.274430 -4.031250 0.420707 -0.058108 0.278929 1.729171 -1.634519 -0.794785 29.135216 -7.957780 -2.601161 25.360518 -7.860308 -25.293721 -8.722888 0.986113 -52.435850 -6.561957 11.641491 -1.125359 -20.216362 17.141884 -1.392470 -3.729542 1.017054 20.753186 8.720243 5.922256 63.811896 4.475401 20.859541 -2.012155 26.597503 18.975961 2.507018 0.140503 1.064424 
2.311687 0.680906 0.985743 -74.594892 -0.425657 85.531165 -3.323036 -2.880190 5.155733 1.281006 -14.313158 0.527051 0.277237 6.176753 -11.338370 0.000000 -0.000000 0.000000 1.739902 -2.282642 5.866949 -5.983287 -3.409281 4.710125 1.880144 -10.543637 -15.099828 0.000000 -0.000000 0.000000 -0.121939 4.193763 10.177135 -3.961121 0.290622 0.186416 0.322657 1.797730 -1.588285 -0.869735 29.070160 -7.962859 -2.659561 25.300699 -7.990553 -25.406951 -8.795472 1.056288 -52.346061 -6.419833 11.591593 -1.077101 -20.229072 17.012376 -1.186599 -3.732963 1.062313 20.965348 8.763403 5.938944 63.519693 4.392009 20.648753 -1.979384 26.670754 18.865622 2.278004 0.556645 1.149958 
2.311327 0.680837 0.985765 -74.476532 -0.391945 85.477403 -3.233411 -2.824487 5.227178 1.197485 -14.365911 0.563465 0.196839 6.095903 -11.322685 0.000000 -0.000000 0.000000 1.781596 -2.324911 6.041315 -5.997605 -3.435215 4.608752 1.872898 -10.584135 -15.064021 0.000000 -0.000000 0.000000 -0.126434 4.166247 10.195752 -3.913928 0.295620 0.451972 0.339477 1.796472 -1.675479 -0.923994 29.092405 -8.050366 -2.653821 25.274611 -8.042812 -25.470788 -8.781843 1.099919 -52.275129 -6.357789 11.538491 -1.127076 -20.420112 17.118325 -1.386629 -3.819059 1.003485 21.003101 8.672822 5.899289 63.459001 4.330484 20.556956 -2.038845 26.763394 18.869454 2.553862 0.456860 1.216701 
2.312285 0.680674 0.985708 -74.802524 -0.451437 85.573805 -3.327776 -2.977018 5.034222 1.078260 -14.072439 0.700517 0.190888 6.166956 -11.246565 0.000000 -0.000000 0.000000 1.638333 -2.022297 5.715497 -5.916349 -3.451396 4.901257 1.812428 -10.513338 -15.077279 0.000000 -0.000000 0.000000 0.013613 4.219624 10.491263 -4.006042 0.454202 0.258500 0.281900 1.849886 -1.659617 -1.051455 28.992538 -8.125440 -2.813281 25.273284 -8.100865 -25.565327 -8.843532 1.106303 -52.285523 -6.387954 11.476208 -0.887760 -20.357933 16.883167 -1.717549 -4.082654 1.184125 21.049611 8.905653 6.061980 63.384552 4.334676 20.577935 -2.304424 26.894884 18.667372 2.686804 0.525483 1.134387 
2.311509 0.680368 0.985823 -74.549226 -0.414646 85.644356 -3.232097 -2.969243 4.914745 1.031553 -14.181919 0.836549 0.338815 6.106410 -11.461781 0.000000 -0.000000 0.000000 1.621020 -2.334911 5.804773 -5.852114 -3.367375 4.682577 1.887052 -10.551726 -15.017025 0.000000 -0.000000 0.000000 -0.056838 4.225632 10.071241 -3.876493 0.296204 0.749464 0.362122 1.704846 -1.669586 -1.085460 28.966135 -8.050590 -2.999324 25.436181 -8.398471 -25.430555 -8.765250 1.171341 -52.335578 -6.464898 11.537320 -0.949902 -20.493471 17.062622 -1.879416 -4.025324 0.525396 20.962363 8.687651 5.950741 63.313456 4.640199 20.563023 -1.982087 26.669392 18.933479 3.123895 0.318129 1.336138 
2.311729 0.679812 0.985787 -74.653853 -0.533784 85.508375 -3.510979 -3.057885 5.160913 1.224248 -14.249049 0.675404 0.181163 6.181898 -11.249037 0.000000 -0.000000 0.000000 1.476719 -1.984666 5.900961 -5.870294 -3.517145 4.849680 1.885999 -10.689379 -15.072730 0.000000 -0.000000 0.000000 -0.037405 4.143269 10.446483 -3.918887 0.344276 0.645795 0.347076 1.790443 -1.584020 -1.055937 28.926450 -8.052551 -3.091717 25.321038 -8.387900 -25.266784 -8.774359 1.056807 -52.500036 -6.607718 11.623900 -0.962623 -20.458185 17.188302 -2.274578 -3.941704 0.225620 20.865494 8.793862 5.887314 63.420202 4.596990 20.662398 -2.234904 26.682775 18.762673 2.984174 0.382603 1.161161 
2.311539 0.679542 0.985982 -74.679608 -0.535106 85.493979 -3.520709 -3.039447 5.095993 1.131378 -14.213083 0.915225 0.386985 6.264682 -11.477251 0.000000 -0.000000 0.000000 1.437601 -2.023328 5.925290 -5.813998 -3.394893 4.876512 1.858569 -10.733203 -15.113294 0.000000 -0.000000 0.000000 0.004478 4.181398 10.423667 -3.897169 0.335670 0.682942 0.329241 1.719361 -1.507600 -1.004072 28.833305 -8.059443 -3.035007 25.240180 -8.268397 -25.302335 -8.859762 1.096745 -52.454262 -6.672584 11.630366 -0.896892 -20.406751 17.187334 -2.557483 -3.855841 0.062214 20.980788 8.749539 5.899319 63.279647 4.651645 20.591398 -2.331338 26.682799 18.724309 3.256631 0.296078 1.508054 
